<svg width="357" height="429" viewBox="0 0 357 429" fill="none" xmlns="http://www.w3.org/2000/svg">
<path d="M144.526 23H140.571L146.597 5.54545H151.352L157.369 23H153.415L149.043 9.53409H148.906L144.526 23ZM144.278 16.1392H153.619V19.0199H144.278V16.1392ZM165.025 23V5.54545H176.582V8.58807H168.715V12.7472H175.815V15.7898H168.715V23H165.025ZM179.893 23H175.938L181.964 5.54545H186.719L192.737 23H188.782L184.41 9.53409H184.273L179.893 23ZM179.646 16.1392H188.987V19.0199H179.646V16.1392ZM203.908 10.5653C203.839 9.87784 203.547 9.34375 203.03 8.96307C202.513 8.58239 201.811 8.39204 200.925 8.39204C200.322 8.39204 199.814 8.47727 199.399 8.64773C198.984 8.8125 198.666 9.04261 198.445 9.33807C198.229 9.63352 198.121 9.96875 198.121 10.3438C198.109 10.6562 198.175 10.929 198.317 11.1619C198.464 11.3949 198.666 11.5966 198.922 11.767C199.178 11.9318 199.473 12.0767 199.808 12.2017C200.143 12.321 200.501 12.4233 200.882 12.5085L202.45 12.8835C203.212 13.054 203.911 13.2812 204.547 13.5653C205.183 13.8494 205.734 14.1989 206.2 14.6136C206.666 15.0284 207.027 15.517 207.283 16.0795C207.544 16.642 207.678 17.2869 207.683 18.0142C207.678 19.0824 207.405 20.0085 206.865 20.7926C206.331 21.571 205.558 22.1761 204.547 22.608C203.541 23.0341 202.328 23.2472 200.908 23.2472C199.499 23.2472 198.271 23.0312 197.226 22.5994C196.186 22.1676 195.374 21.5284 194.788 20.6818C194.209 19.8295 193.905 18.7756 193.876 17.5199H197.447C197.487 18.1051 197.655 18.5937 197.95 18.9858C198.251 19.3722 198.652 19.6648 199.152 19.8636C199.658 20.0568 200.229 20.1534 200.865 20.1534C201.49 20.1534 202.033 20.0625 202.493 19.8807C202.959 19.6989 203.32 19.446 203.575 19.1222C203.831 18.7983 203.959 18.4261 203.959 18.0057C203.959 17.6136 203.842 17.2841 203.609 17.017C203.382 16.75 203.047 16.5227 202.604 16.3352C202.166 16.1477 201.629 15.9773 200.993 15.8239L199.092 15.3466C197.621 14.9886 196.459 14.429 195.607 13.6676C194.754 12.9062 194.331 11.8807 194.337 10.5909C194.331 9.53409 194.612 8.6108 195.18 7.82102C195.754 7.03125 196.541 6.41477 197.541 5.97159C198.541 5.52841 199.678 5.30682 200.95 5.30682C202.246 5.30682 203.376 5.52841 204.342 5.97159C205.314 6.41477 206.07 7.03125 206.609 7.82102C207.149 8.6108 207.428 9.52557 207.445 10.5653H203.908ZM210.165 23V5.54545H213.856V12.7472H221.347V5.54545H225.029V23H221.347V15.7898H213.856V23H210.165ZM231.762 5.54545V23H228.072V5.54545H231.762ZM250.838 14.2727C250.838 16.1761 250.477 17.7955 249.756 19.1307C249.04 20.4659 248.063 21.4858 246.824 22.1903C245.591 22.8892 244.205 23.2386 242.665 23.2386C241.114 23.2386 239.722 22.8864 238.489 22.1818C237.256 21.4773 236.281 20.4574 235.565 19.1222C234.849 17.7869 234.491 16.1705 234.491 14.2727C234.491 12.3693 234.849 10.75 235.565 9.41477C236.281 8.07955 237.256 7.0625 238.489 6.36364C239.722 5.65909 241.114 5.30682 242.665 5.30682C244.205 5.30682 245.591 5.65909 246.824 6.36364C248.063 7.0625 249.04 8.07955 249.756 9.41477C250.477 10.75 250.838 12.3693 250.838 14.2727ZM247.097 14.2727C247.097 13.0398 246.912 12 246.543 11.1534C246.179 10.3068 245.665 9.66477 245 9.22727C244.335 8.78977 243.557 8.57102 242.665 8.57102C241.773 8.57102 240.994 8.78977 240.33 9.22727C239.665 9.66477 239.148 10.3068 238.778 11.1534C238.415 12 238.233 13.0398 238.233 14.2727C238.233 15.5057 238.415 16.5455 238.778 17.392C239.148 18.2386 239.665 18.8807 240.33 19.3182C240.994 19.7557 241.773 19.9744 242.665 19.9744C243.557 19.9744 244.335 19.7557 245 19.3182C245.665 18.8807 246.179 18.2386 246.543 17.392C246.912 16.5455 247.097 15.5057 247.097 14.2727ZM268.171 5.54545V23H264.984L257.39 12.0142H257.262V23H253.572V5.54545H256.81L264.344 16.5227H264.498V5.54545H268.171ZM292.175 11.6562H288.442C288.374 11.1733 288.235 10.7443 288.025 10.3693C287.815 9.98864 287.545 9.66477 287.215 9.39773C286.886 9.13068 286.505 8.92614 286.073 8.78409C285.647 8.64205 285.184 8.57102 284.684 8.57102C283.781 8.57102 282.994 8.79545 282.323 9.24432C281.653 9.6875 281.133 10.3352 280.763 11.1875C280.394 12.0341 280.21 13.0625 280.21 14.2727C280.21 15.517 280.394 16.5625 280.763 17.4091C281.138 18.2557 281.661 18.8949 282.332 19.3267C283.002 19.7585 283.778 19.9744 284.658 19.9744C285.153 19.9744 285.61 19.9091 286.031 19.7784C286.457 19.6477 286.835 19.4574 287.164 19.2074C287.494 18.9517 287.766 18.642 287.982 18.2784C288.204 17.9148 288.357 17.5 288.442 17.0341L292.175 17.0511C292.079 17.8523 291.837 18.625 291.451 19.3693C291.07 20.108 290.556 20.7699 289.908 21.3551C289.266 21.9347 288.499 22.3949 287.607 22.7358C286.721 23.071 285.718 23.2386 284.599 23.2386C283.042 23.2386 281.65 22.8864 280.423 22.1818C279.201 21.4773 278.235 20.4574 277.525 19.1222C276.82 17.7869 276.468 16.1705 276.468 14.2727C276.468 12.3693 276.826 10.75 277.542 9.41477C278.258 8.07955 279.229 7.0625 280.457 6.36364C281.684 5.65909 283.065 5.30682 284.599 5.30682C285.61 5.30682 286.548 5.44886 287.411 5.73295C288.281 6.01705 289.05 6.43182 289.721 6.97727C290.391 7.51704 290.937 8.17898 291.357 8.96307C291.783 9.74716 292.056 10.6449 292.175 11.6562ZM294.822 23V5.54545H298.512V19.9574H305.995V23H294.822ZM319.22 5.54545H322.911V16.8807C322.911 18.1534 322.607 19.267 321.999 20.2216C321.396 21.1761 320.553 21.9205 319.467 22.4545C318.382 22.983 317.118 23.2472 315.675 23.2472C314.226 23.2472 312.959 22.983 311.874 22.4545C310.788 21.9205 309.945 21.1761 309.342 20.2216C308.74 19.267 308.439 18.1534 308.439 16.8807V5.54545H312.129V16.5653C312.129 17.2301 312.274 17.821 312.564 18.3381C312.859 18.8551 313.274 19.2614 313.808 19.5568C314.342 19.8523 314.964 20 315.675 20C316.391 20 317.013 19.8523 317.541 19.5568C318.075 19.2614 318.487 18.8551 318.777 18.3381C319.072 17.821 319.22 17.2301 319.22 16.5653V5.54545ZM325.947 23V5.54545H332.935C334.219 5.54545 335.29 5.7358 336.148 6.11648C337.006 6.49716 337.651 7.02557 338.083 7.7017C338.515 8.37216 338.731 9.14489 338.731 10.0199C338.731 10.7017 338.594 11.3011 338.322 11.8182C338.049 12.3295 337.674 12.75 337.197 13.0795C336.725 13.4034 336.185 13.6335 335.577 13.7699V13.9403C336.242 13.9687 336.864 14.1562 337.444 14.5028C338.029 14.8494 338.504 15.3352 338.867 15.9602C339.231 16.5795 339.413 17.3182 339.413 18.1761C339.413 19.1023 339.183 19.929 338.722 20.6562C338.268 21.3778 337.594 21.9489 336.702 22.3693C335.81 22.7898 334.711 23 333.404 23H325.947ZM329.637 19.983H332.646C333.674 19.983 334.424 19.7869 334.896 19.3949C335.367 18.9972 335.603 18.4687 335.603 17.8097C335.603 17.3267 335.487 16.9006 335.254 16.5312C335.021 16.1619 334.688 15.8722 334.256 15.6619C333.83 15.4517 333.322 15.3466 332.731 15.3466H329.637V19.983ZM329.637 12.8494H332.373C332.879 12.8494 333.327 12.7614 333.719 12.5852C334.117 12.4034 334.43 12.1477 334.657 11.8182C334.89 11.4886 335.006 11.0938 335.006 10.6335C335.006 10.0028 334.782 9.49432 334.333 9.10795C333.89 8.72159 333.259 8.52841 332.441 8.52841H329.637V12.8494Z" fill="white" fill-opacity="0.5"/>
<path d="M108.689 401.216C107.213 401.216 106.127 400.586 105.431 399.326L106.511 398.57C106.775 399.038 107.075 399.38 107.411 399.596C107.747 399.8 108.125 399.902 108.545 399.902C109.181 399.902 109.655 399.71 109.967 399.326C110.279 398.93 110.435 398.282 110.435 397.382V389.192H111.947V397.526C111.947 398.198 111.833 398.816 111.605 399.38C111.389 399.944 111.041 400.394 110.561 400.73C110.081 401.054 109.457 401.216 108.689 401.216ZM117.553 401.216C116.629 401.216 115.951 400.928 115.519 400.352C115.087 399.764 114.871 398.912 114.871 397.796V392.252H116.365V397.598C116.365 398.414 116.491 399.008 116.743 399.38C117.007 399.752 117.427 399.938 118.003 399.938C118.459 399.938 118.861 399.824 119.209 399.596C119.569 399.356 119.953 398.978 120.361 398.462V392.252H121.837V401H120.613L120.487 399.632H120.433C120.025 400.112 119.593 400.496 119.137 400.784C118.681 401.072 118.153 401.216 117.553 401.216ZM124.789 401V392.252H126.013L126.139 393.512H126.193C126.577 393.092 126.997 392.744 127.453 392.468C127.909 392.18 128.395 392.036 128.911 392.036C129.583 392.036 130.105 392.186 130.477 392.486C130.861 392.774 131.143 393.182 131.323 393.71C131.779 393.218 132.241 392.816 132.709 392.504C133.177 392.192 133.675 392.036 134.203 392.036C135.103 392.036 135.769 392.33 136.201 392.918C136.645 393.494 136.867 394.34 136.867 395.456V401H135.391V395.654C135.391 394.838 135.259 394.244 134.995 393.872C134.731 393.5 134.323 393.314 133.771 393.314C133.123 393.314 132.391 393.764 131.575 394.664V401H130.099V395.654C130.099 394.838 129.967 394.244 129.703 393.872C129.439 393.5 129.025 393.314 128.461 393.314C127.813 393.314 127.081 393.764 126.265 394.664V401H124.789ZM139.712 404.69V392.252H140.936L141.062 393.26H141.116C141.512 392.924 141.944 392.636 142.412 392.396C142.892 392.156 143.39 392.036 143.906 392.036C145.034 392.036 145.892 392.444 146.48 393.26C147.068 394.064 147.362 395.144 147.362 396.5C147.362 397.484 147.182 398.33 146.822 399.038C146.474 399.746 146.012 400.286 145.436 400.658C144.872 401.03 144.254 401.216 143.582 401.216C143.174 401.216 142.766 401.126 142.358 400.946C141.962 400.766 141.56 400.52 141.152 400.208L141.188 401.738V404.69H139.712ZM143.33 399.974C144.05 399.974 144.644 399.668 145.112 399.056C145.592 398.432 145.832 397.58 145.832 396.5C145.832 395.54 145.652 394.766 145.292 394.178C144.944 393.578 144.356 393.278 143.528 393.278C143.156 393.278 142.778 393.38 142.394 393.584C142.022 393.788 141.62 394.082 141.188 394.466V399.056C141.584 399.392 141.968 399.632 142.34 399.776C142.712 399.908 143.042 399.974 143.33 399.974ZM155.316 401.216C154.584 401.216 153.972 401 153.48 400.568C153 400.124 152.76 399.512 152.76 398.732C152.76 397.772 153.186 397.04 154.038 396.536C154.902 396.02 156.264 395.66 158.124 395.456C158.124 395.084 158.07 394.73 157.962 394.394C157.866 394.058 157.686 393.788 157.422 393.584C157.17 393.368 156.804 393.26 156.324 393.26C155.82 393.26 155.346 393.356 154.902 393.548C154.458 393.74 154.062 393.956 153.714 394.196L153.138 393.17C153.546 392.906 154.044 392.654 154.632 392.414C155.232 392.162 155.88 392.036 156.576 392.036C157.644 392.036 158.418 392.366 158.898 393.026C159.378 393.674 159.618 394.544 159.618 395.636V401H158.394L158.268 399.956H158.214C157.806 400.292 157.356 400.586 156.864 400.838C156.384 401.09 155.868 401.216 155.316 401.216ZM155.748 400.028C156.168 400.028 156.564 399.926 156.936 399.722C157.308 399.518 157.704 399.23 158.124 398.858V396.428C156.672 396.608 155.652 396.878 155.064 397.238C154.488 397.598 154.2 398.06 154.2 398.624C154.2 399.116 154.35 399.476 154.65 399.704C154.95 399.92 155.316 400.028 155.748 400.028ZM164.878 401.216C163.942 401.216 163.288 400.946 162.916 400.406C162.556 399.866 162.376 399.164 162.376 398.3V393.458H161.08V392.342L162.448 392.252L162.628 389.804H163.87V392.252H166.228V393.458H163.87V398.318C163.87 398.858 163.966 399.278 164.158 399.578C164.362 399.866 164.716 400.01 165.22 400.01C165.376 400.01 165.544 399.986 165.724 399.938C165.904 399.878 166.066 399.824 166.21 399.776L166.498 400.892C166.258 400.976 165.994 401.048 165.706 401.108C165.43 401.18 165.154 401.216 164.878 401.216ZM173.826 401.216C173.094 401.216 172.482 401 171.99 400.568C171.51 400.124 171.27 399.512 171.27 398.732C171.27 397.772 171.696 397.04 172.548 396.536C173.412 396.02 174.774 395.66 176.634 395.456C176.634 395.084 176.58 394.73 176.472 394.394C176.376 394.058 176.196 393.788 175.932 393.584C175.68 393.368 175.314 393.26 174.834 393.26C174.33 393.26 173.856 393.356 173.412 393.548C172.968 393.74 172.572 393.956 172.224 394.196L171.648 393.17C172.056 392.906 172.554 392.654 173.142 392.414C173.742 392.162 174.39 392.036 175.086 392.036C176.154 392.036 176.928 392.366 177.408 393.026C177.888 393.674 178.128 394.544 178.128 395.636V401H176.904L176.778 399.956H176.724C176.316 400.292 175.866 400.586 175.374 400.838C174.894 401.09 174.378 401.216 173.826 401.216ZM174.258 400.028C174.678 400.028 175.074 399.926 175.446 399.722C175.818 399.518 176.214 399.23 176.634 398.858V396.428C175.182 396.608 174.162 396.878 173.574 397.238C172.998 397.598 172.71 398.06 172.71 398.624C172.71 399.116 172.86 399.476 173.16 399.704C173.46 399.92 173.826 400.028 174.258 400.028ZM187.94 401.216C187.172 401.216 186.476 401.036 185.852 400.676C185.228 400.316 184.736 399.794 184.376 399.11C184.016 398.426 183.836 397.604 183.836 396.644C183.836 395.66 184.028 394.826 184.412 394.142C184.808 393.458 185.324 392.936 185.96 392.576C186.608 392.216 187.304 392.036 188.048 392.036C188.624 392.036 189.116 392.138 189.524 392.342C189.944 392.546 190.304 392.786 190.604 393.062L189.848 394.034C189.596 393.806 189.326 393.62 189.038 393.476C188.762 393.332 188.45 393.26 188.102 393.26C187.574 393.26 187.1 393.404 186.68 393.692C186.272 393.968 185.948 394.364 185.708 394.88C185.48 395.384 185.366 395.972 185.366 396.644C185.366 397.64 185.612 398.45 186.104 399.074C186.608 399.686 187.262 399.992 188.066 399.992C188.474 399.992 188.852 399.908 189.2 399.74C189.548 399.56 189.854 399.35 190.118 399.11L190.766 400.1C190.37 400.448 189.932 400.724 189.452 400.928C188.972 401.12 188.468 401.216 187.94 401.216ZM192.693 401V388.184H194.169V391.676L194.115 393.476C194.535 393.08 194.973 392.744 195.429 392.468C195.897 392.18 196.431 392.036 197.031 392.036C197.955 392.036 198.627 392.33 199.047 392.918C199.479 393.494 199.695 394.34 199.695 395.456V401H198.219V395.654C198.219 394.838 198.087 394.244 197.823 393.872C197.559 393.5 197.139 393.314 196.563 393.314C196.119 393.314 195.717 393.428 195.357 393.656C195.009 393.884 194.613 394.22 194.169 394.664V401H192.693ZM204.5 401.216C203.768 401.216 203.156 401 202.664 400.568C202.184 400.124 201.944 399.512 201.944 398.732C201.944 397.772 202.37 397.04 203.222 396.536C204.086 396.02 205.448 395.66 207.308 395.456C207.308 395.084 207.254 394.73 207.146 394.394C207.05 394.058 206.87 393.788 206.606 393.584C206.354 393.368 205.988 393.26 205.508 393.26C205.004 393.26 204.53 393.356 204.086 393.548C203.642 393.74 203.246 393.956 202.898 394.196L202.322 393.17C202.73 392.906 203.228 392.654 203.816 392.414C204.416 392.162 205.064 392.036 205.76 392.036C206.828 392.036 207.602 392.366 208.082 393.026C208.562 393.674 208.802 394.544 208.802 395.636V401H207.578L207.452 399.956H207.398C206.99 400.292 206.54 400.586 206.048 400.838C205.568 401.09 205.052 401.216 204.5 401.216ZM204.932 400.028C205.352 400.028 205.748 399.926 206.12 399.722C206.492 399.518 206.888 399.23 207.308 398.858V396.428C205.856 396.608 204.836 396.878 204.248 397.238C203.672 397.598 203.384 398.06 203.384 398.624C203.384 399.116 203.534 399.476 203.834 399.704C204.134 399.92 204.5 400.028 204.932 400.028ZM211.554 401V392.252H212.778L212.904 393.512H212.958C213.378 393.092 213.822 392.744 214.29 392.468C214.758 392.18 215.292 392.036 215.892 392.036C216.816 392.036 217.488 392.33 217.908 392.918C218.34 393.494 218.556 394.34 218.556 395.456V401H217.08V395.654C217.08 394.838 216.948 394.244 216.684 393.872C216.42 393.5 216 393.314 215.424 393.314C214.98 393.314 214.578 393.428 214.218 393.656C213.87 393.884 213.474 394.22 213.03 394.664V401H211.554ZM224.854 401.216C224.086 401.216 223.39 401.036 222.766 400.676C222.142 400.316 221.65 399.794 221.29 399.11C220.93 398.426 220.75 397.604 220.75 396.644C220.75 395.66 220.942 394.826 221.326 394.142C221.722 393.458 222.238 392.936 222.874 392.576C223.522 392.216 224.218 392.036 224.962 392.036C225.538 392.036 226.03 392.138 226.438 392.342C226.858 392.546 227.218 392.786 227.518 393.062L226.762 394.034C226.51 393.806 226.24 393.62 225.952 393.476C225.676 393.332 225.364 393.26 225.016 393.26C224.488 393.26 224.014 393.404 223.594 393.692C223.186 393.968 222.862 394.364 222.622 394.88C222.394 395.384 222.28 395.972 222.28 396.644C222.28 397.64 222.526 398.45 223.018 399.074C223.522 399.686 224.176 399.992 224.98 399.992C225.388 399.992 225.766 399.908 226.114 399.74C226.462 399.56 226.768 399.35 227.032 399.11L227.68 400.1C227.284 400.448 226.846 400.724 226.366 400.928C225.886 401.12 225.382 401.216 224.854 401.216ZM232.766 401.216C231.986 401.216 231.278 401.036 230.642 400.676C230.006 400.304 229.502 399.776 229.13 399.092C228.758 398.408 228.572 397.592 228.572 396.644C228.572 395.684 228.758 394.862 229.13 394.178C229.514 393.494 230.006 392.966 230.606 392.594C231.206 392.222 231.836 392.036 232.496 392.036C233.612 392.036 234.47 392.408 235.07 393.152C235.682 393.896 235.988 394.892 235.988 396.14C235.988 396.296 235.982 396.452 235.97 396.608C235.97 396.752 235.958 396.878 235.934 396.986H230.03C230.09 397.91 230.378 398.648 230.894 399.2C231.422 399.752 232.106 400.028 232.946 400.028C233.366 400.028 233.75 399.968 234.098 399.848C234.458 399.716 234.8 399.548 235.124 399.344L235.646 400.316C235.274 400.556 234.848 400.766 234.368 400.946C233.9 401.126 233.366 401.216 232.766 401.216ZM230.012 395.924H234.692C234.692 395.036 234.5 394.364 234.116 393.908C233.744 393.44 233.216 393.206 232.532 393.206C231.92 393.206 231.368 393.446 230.876 393.926C230.396 394.394 230.108 395.06 230.012 395.924ZM244.507 401.216C243.571 401.216 242.917 400.946 242.545 400.406C242.185 399.866 242.005 399.164 242.005 398.3V393.458H240.709V392.342L242.077 392.252L242.257 389.804H243.499V392.252H245.857V393.458H243.499V398.318C243.499 398.858 243.595 399.278 243.787 399.578C243.991 399.866 244.345 400.01 244.849 400.01C245.005 400.01 245.173 399.986 245.353 399.938C245.533 399.878 245.695 399.824 245.839 399.776L246.127 400.892C245.887 400.976 245.623 401.048 245.335 401.108C245.059 401.18 244.783 401.216 244.507 401.216ZM250.991 401.216C250.283 401.216 249.617 401.036 248.993 400.676C248.381 400.316 247.883 399.794 247.499 399.11C247.127 398.426 246.941 397.604 246.941 396.644C246.941 395.66 247.127 394.826 247.499 394.142C247.883 393.458 248.381 392.936 248.993 392.576C249.617 392.216 250.283 392.036 250.991 392.036C251.711 392.036 252.377 392.216 252.989 392.576C253.601 392.936 254.093 393.458 254.465 394.142C254.849 394.826 255.041 395.66 255.041 396.644C255.041 397.604 254.849 398.426 254.465 399.11C254.093 399.794 253.601 400.316 252.989 400.676C252.377 401.036 251.711 401.216 250.991 401.216ZM250.991 399.992C251.747 399.992 252.353 399.686 252.809 399.074C253.277 398.45 253.511 397.64 253.511 396.644C253.511 395.636 253.277 394.82 252.809 394.196C252.353 393.572 251.747 393.26 250.991 393.26C250.247 393.26 249.641 393.572 249.173 394.196C248.705 394.82 248.471 395.636 248.471 396.644C248.471 397.64 248.705 398.45 249.173 399.074C249.641 399.686 250.247 399.992 250.991 399.992ZM260.949 404.69V392.252H262.173L262.299 393.26H262.353C262.749 392.924 263.181 392.636 263.649 392.396C264.129 392.156 264.627 392.036 265.143 392.036C266.271 392.036 267.129 392.444 267.717 393.26C268.305 394.064 268.599 395.144 268.599 396.5C268.599 397.484 268.419 398.33 268.059 399.038C267.711 399.746 267.249 400.286 266.673 400.658C266.109 401.03 265.491 401.216 264.819 401.216C264.411 401.216 264.003 401.126 263.595 400.946C263.199 400.766 262.797 400.52 262.389 400.208L262.425 401.738V404.69H260.949ZM264.567 399.974C265.287 399.974 265.881 399.668 266.349 399.056C266.829 398.432 267.069 397.58 267.069 396.5C267.069 395.54 266.889 394.766 266.529 394.178C266.181 393.578 265.593 393.278 264.765 393.278C264.393 393.278 264.015 393.38 263.631 393.584C263.259 393.788 262.857 394.082 262.425 394.466V399.056C262.821 399.392 263.205 399.632 263.577 399.776C263.949 399.908 264.279 399.974 264.567 399.974ZM272.703 401.216C271.971 401.216 271.359 401 270.867 400.568C270.387 400.124 270.147 399.512 270.147 398.732C270.147 397.772 270.573 397.04 271.425 396.536C272.289 396.02 273.651 395.66 275.511 395.456C275.511 395.084 275.457 394.73 275.349 394.394C275.253 394.058 275.073 393.788 274.809 393.584C274.557 393.368 274.191 393.26 273.711 393.26C273.207 393.26 272.733 393.356 272.289 393.548C271.845 393.74 271.449 393.956 271.101 394.196L270.525 393.17C270.933 392.906 271.431 392.654 272.019 392.414C272.619 392.162 273.267 392.036 273.963 392.036C275.031 392.036 275.805 392.366 276.285 393.026C276.765 393.674 277.005 394.544 277.005 395.636V401H275.781L275.655 399.956H275.601C275.193 400.292 274.743 400.586 274.251 400.838C273.771 401.09 273.255 401.216 272.703 401.216ZM273.135 400.028C273.555 400.028 273.951 399.926 274.323 399.722C274.695 399.518 275.091 399.23 275.511 398.858V396.428C274.059 396.608 273.039 396.878 272.451 397.238C271.875 397.598 271.587 398.06 271.587 398.624C271.587 399.116 271.737 399.476 272.037 399.704C272.337 399.92 272.703 400.028 273.135 400.028ZM279.757 401V392.252H280.981L281.107 393.836H281.161C281.461 393.284 281.827 392.846 282.259 392.522C282.691 392.198 283.153 392.036 283.645 392.036C283.993 392.036 284.305 392.096 284.581 392.216L284.293 393.512C284.149 393.464 284.017 393.428 283.897 393.404C283.777 393.38 283.627 393.368 283.447 393.368C283.075 393.368 282.685 393.518 282.277 393.818C281.881 394.118 281.533 394.64 281.233 395.384V401H279.757ZM288.751 401.216C287.815 401.216 287.161 400.946 286.789 400.406C286.429 399.866 286.249 399.164 286.249 398.3V393.458H284.953V392.342L286.321 392.252L286.501 389.804H287.743V392.252H290.101V393.458H287.743V398.318C287.743 398.858 287.839 399.278 288.031 399.578C288.235 399.866 288.589 400.01 289.093 400.01C289.249 400.01 289.417 399.986 289.597 399.938C289.777 399.878 289.939 399.824 290.083 399.776L290.371 400.892C290.131 400.976 289.867 401.048 289.579 401.108C289.303 401.18 289.027 401.216 288.751 401.216ZM292.08 401V392.252H293.556V401H292.08ZM292.836 390.452C292.548 390.452 292.308 390.368 292.116 390.2C291.936 390.02 291.846 389.78 291.846 389.48C291.846 389.192 291.936 388.958 292.116 388.778C292.308 388.598 292.548 388.508 292.836 388.508C293.124 388.508 293.358 388.598 293.538 388.778C293.73 388.958 293.826 389.192 293.826 389.48C293.826 389.78 293.73 390.02 293.538 390.2C293.358 390.368 293.124 390.452 292.836 390.452ZM299.965 401.216C299.197 401.216 298.501 401.036 297.877 400.676C297.253 400.316 296.761 399.794 296.401 399.11C296.041 398.426 295.861 397.604 295.861 396.644C295.861 395.66 296.053 394.826 296.437 394.142C296.833 393.458 297.349 392.936 297.985 392.576C298.633 392.216 299.329 392.036 300.073 392.036C300.649 392.036 301.141 392.138 301.549 392.342C301.969 392.546 302.329 392.786 302.629 393.062L301.873 394.034C301.621 393.806 301.351 393.62 301.063 393.476C300.787 393.332 300.475 393.26 300.127 393.26C299.599 393.26 299.125 393.404 298.705 393.692C298.297 393.968 297.973 394.364 297.733 394.88C297.505 395.384 297.391 395.972 297.391 396.644C297.391 397.64 297.637 398.45 298.129 399.074C298.633 399.686 299.287 399.992 300.091 399.992C300.499 399.992 300.877 399.908 301.225 399.74C301.573 399.56 301.879 399.35 302.143 399.11L302.791 400.1C302.395 400.448 301.957 400.724 301.477 400.928C300.997 401.12 300.493 401.216 299.965 401.216ZM304.718 401V392.252H306.194V401H304.718ZM305.474 390.452C305.186 390.452 304.946 390.368 304.754 390.2C304.574 390.02 304.484 389.78 304.484 389.48C304.484 389.192 304.574 388.958 304.754 388.778C304.946 388.598 305.186 388.508 305.474 388.508C305.762 388.508 305.996 388.598 306.176 388.778C306.368 388.958 306.464 389.192 306.464 389.48C306.464 389.78 306.368 390.02 306.176 390.2C305.996 390.368 305.762 390.452 305.474 390.452ZM309.148 404.69V392.252H310.372L310.498 393.26H310.552C310.948 392.924 311.38 392.636 311.848 392.396C312.328 392.156 312.826 392.036 313.342 392.036C314.47 392.036 315.328 392.444 315.916 393.26C316.504 394.064 316.798 395.144 316.798 396.5C316.798 397.484 316.618 398.33 316.258 399.038C315.91 399.746 315.448 400.286 314.872 400.658C314.308 401.03 313.69 401.216 313.018 401.216C312.61 401.216 312.202 401.126 311.794 400.946C311.398 400.766 310.996 400.52 310.588 400.208L310.624 401.738V404.69H309.148ZM312.766 399.974C313.486 399.974 314.08 399.668 314.548 399.056C315.028 398.432 315.268 397.58 315.268 396.5C315.268 395.54 315.088 394.766 314.728 394.178C314.38 393.578 313.792 393.278 312.964 393.278C312.592 393.278 312.214 393.38 311.83 393.584C311.458 393.788 311.056 394.082 310.624 394.466V399.056C311.02 399.392 311.404 399.632 311.776 399.776C312.148 399.908 312.478 399.974 312.766 399.974ZM320.902 401.216C320.17 401.216 319.558 401 319.066 400.568C318.586 400.124 318.346 399.512 318.346 398.732C318.346 397.772 318.772 397.04 319.624 396.536C320.488 396.02 321.85 395.66 323.71 395.456C323.71 395.084 323.656 394.73 323.548 394.394C323.452 394.058 323.272 393.788 323.008 393.584C322.756 393.368 322.39 393.26 321.91 393.26C321.406 393.26 320.932 393.356 320.488 393.548C320.044 393.74 319.648 393.956 319.3 394.196L318.724 393.17C319.132 392.906 319.63 392.654 320.218 392.414C320.818 392.162 321.466 392.036 322.162 392.036C323.23 392.036 324.004 392.366 324.484 393.026C324.964 393.674 325.204 394.544 325.204 395.636V401H323.98L323.854 399.956H323.8C323.392 400.292 322.942 400.586 322.45 400.838C321.97 401.09 321.454 401.216 320.902 401.216ZM321.334 400.028C321.754 400.028 322.15 399.926 322.522 399.722C322.894 399.518 323.29 399.23 323.71 398.858V396.428C322.258 396.608 321.238 396.878 320.65 397.238C320.074 397.598 319.786 398.06 319.786 398.624C319.786 399.116 319.936 399.476 320.236 399.704C320.536 399.92 320.902 400.028 321.334 400.028ZM330.464 401.216C329.528 401.216 328.874 400.946 328.502 400.406C328.142 399.866 327.962 399.164 327.962 398.3V393.458H326.666V392.342L328.034 392.252L328.214 389.804H329.456V392.252H331.814V393.458H329.456V398.318C329.456 398.858 329.552 399.278 329.744 399.578C329.948 399.866 330.302 400.01 330.806 400.01C330.962 400.01 331.13 399.986 331.31 399.938C331.49 399.878 331.652 399.824 331.796 399.776L332.084 400.892C331.844 400.976 331.58 401.048 331.292 401.108C331.016 401.18 330.74 401.216 330.464 401.216ZM337.092 401.216C336.312 401.216 335.604 401.036 334.968 400.676C334.332 400.304 333.828 399.776 333.456 399.092C333.084 398.408 332.898 397.592 332.898 396.644C332.898 395.684 333.084 394.862 333.456 394.178C333.84 393.494 334.332 392.966 334.932 392.594C335.532 392.222 336.162 392.036 336.822 392.036C337.938 392.036 338.796 392.408 339.396 393.152C340.008 393.896 340.314 394.892 340.314 396.14C340.314 396.296 340.308 396.452 340.296 396.608C340.296 396.752 340.284 396.878 340.26 396.986H334.356C334.416 397.91 334.704 398.648 335.22 399.2C335.748 399.752 336.432 400.028 337.272 400.028C337.692 400.028 338.076 399.968 338.424 399.848C338.784 399.716 339.126 399.548 339.45 399.344L339.972 400.316C339.6 400.556 339.174 400.766 338.694 400.946C338.226 401.126 337.692 401.216 337.092 401.216ZM334.338 395.924H339.018C339.018 395.036 338.826 394.364 338.442 393.908C338.07 393.44 337.542 393.206 336.858 393.206C336.246 393.206 335.694 393.446 335.202 393.926C334.722 394.394 334.434 395.06 334.338 395.924ZM123.857 424V415.252H125.333V424H123.857ZM124.613 413.452C124.325 413.452 124.085 413.368 123.893 413.2C123.713 413.02 123.623 412.78 123.623 412.48C123.623 412.192 123.713 411.958 123.893 411.778C124.085 411.598 124.325 411.508 124.613 411.508C124.901 411.508 125.135 411.598 125.315 411.778C125.507 411.958 125.603 412.192 125.603 412.48C125.603 412.78 125.507 413.02 125.315 413.2C125.135 413.368 124.901 413.452 124.613 413.452ZM128.287 424V415.252H129.511L129.637 416.512H129.691C130.111 416.092 130.555 415.744 131.023 415.468C131.491 415.18 132.025 415.036 132.625 415.036C133.549 415.036 134.221 415.33 134.641 415.918C135.073 416.494 135.289 417.34 135.289 418.456V424H133.813V418.654C133.813 417.838 133.681 417.244 133.417 416.872C133.153 416.5 132.733 416.314 132.157 416.314C131.713 416.314 131.311 416.428 130.951 416.656C130.603 416.884 130.207 417.22 129.763 417.664V424H128.287ZM145.136 424.216C144.428 424.216 143.762 424.036 143.138 423.676C142.526 423.316 142.028 422.794 141.644 422.11C141.272 421.426 141.086 420.604 141.086 419.644C141.086 418.66 141.272 417.826 141.644 417.142C142.028 416.458 142.526 415.936 143.138 415.576C143.762 415.216 144.428 415.036 145.136 415.036C145.856 415.036 146.522 415.216 147.134 415.576C147.746 415.936 148.238 416.458 148.61 417.142C148.994 417.826 149.186 418.66 149.186 419.644C149.186 420.604 148.994 421.426 148.61 422.11C148.238 422.794 147.746 423.316 147.134 423.676C146.522 424.036 145.856 424.216 145.136 424.216ZM145.136 422.992C145.892 422.992 146.498 422.686 146.954 422.074C147.422 421.45 147.656 420.64 147.656 419.644C147.656 418.636 147.422 417.82 146.954 417.196C146.498 416.572 145.892 416.26 145.136 416.26C144.392 416.26 143.786 416.572 143.318 417.196C142.85 417.82 142.616 418.636 142.616 419.644C142.616 420.64 142.85 421.45 143.318 422.074C143.786 422.686 144.392 422.992 145.136 422.992ZM154.046 424.216C153.122 424.216 152.444 423.928 152.012 423.352C151.58 422.764 151.364 421.912 151.364 420.796V415.252H152.858V420.598C152.858 421.414 152.984 422.008 153.236 422.38C153.5 422.752 153.92 422.938 154.496 422.938C154.952 422.938 155.354 422.824 155.702 422.596C156.062 422.356 156.446 421.978 156.854 421.462V415.252H158.33V424H157.106L156.98 422.632H156.926C156.518 423.112 156.086 423.496 155.63 423.784C155.174 424.072 154.646 424.216 154.046 424.216ZM161.281 424V415.252H162.505L162.631 416.836H162.685C162.985 416.284 163.351 415.846 163.783 415.522C164.215 415.198 164.677 415.036 165.169 415.036C165.517 415.036 165.829 415.096 166.105 415.216L165.817 416.512C165.673 416.464 165.541 416.428 165.421 416.404C165.301 416.38 165.151 416.368 164.971 416.368C164.599 416.368 164.209 416.518 163.801 416.818C163.405 417.118 163.057 417.64 162.757 418.384V424H161.281ZM171.124 424V415.252H172.348L172.474 416.512H172.528C172.948 416.092 173.392 415.744 173.86 415.468C174.328 415.18 174.862 415.036 175.462 415.036C176.386 415.036 177.058 415.33 177.478 415.918C177.91 416.494 178.126 417.34 178.126 418.456V424H176.65V418.654C176.65 417.838 176.518 417.244 176.254 416.872C175.99 416.5 175.57 416.314 174.994 416.314C174.55 416.314 174.148 416.428 173.788 416.656C173.44 416.884 173.044 417.22 172.6 417.664V424H171.124ZM184.514 424.216C183.734 424.216 183.026 424.036 182.39 423.676C181.754 423.304 181.25 422.776 180.878 422.092C180.506 421.408 180.32 420.592 180.32 419.644C180.32 418.684 180.506 417.862 180.878 417.178C181.262 416.494 181.754 415.966 182.354 415.594C182.954 415.222 183.584 415.036 184.244 415.036C185.36 415.036 186.218 415.408 186.818 416.152C187.43 416.896 187.736 417.892 187.736 419.14C187.736 419.296 187.73 419.452 187.718 419.608C187.718 419.752 187.706 419.878 187.682 419.986H181.778C181.838 420.91 182.126 421.648 182.642 422.2C183.17 422.752 183.854 423.028 184.694 423.028C185.114 423.028 185.498 422.968 185.846 422.848C186.206 422.716 186.548 422.548 186.872 422.344L187.394 423.316C187.022 423.556 186.596 423.766 186.116 423.946C185.648 424.126 185.114 424.216 184.514 424.216ZM181.76 418.924H186.44C186.44 418.036 186.248 417.364 185.864 416.908C185.492 416.44 184.964 416.206 184.28 416.206C183.668 416.206 183.116 416.446 182.624 416.926C182.144 417.394 181.856 418.06 181.76 418.924ZM191.372 424L188.942 415.252H190.454L191.75 420.31C191.846 420.718 191.936 421.126 192.02 421.534C192.104 421.93 192.188 422.332 192.272 422.74H192.344C192.44 422.332 192.536 421.93 192.632 421.534C192.728 421.126 192.83 420.718 192.938 420.31L194.288 415.252H195.728L197.096 420.31C197.204 420.718 197.306 421.126 197.402 421.534C197.51 421.93 197.612 422.332 197.708 422.74H197.78C197.876 422.332 197.966 421.93 198.05 421.534C198.146 421.126 198.236 420.718 198.32 420.31L199.598 415.252H201.002L198.662 424H196.862L195.602 419.302C195.494 418.882 195.392 418.468 195.296 418.06C195.212 417.652 195.116 417.226 195.008 416.782H194.936C194.84 417.226 194.744 417.658 194.648 418.078C194.552 418.486 194.444 418.9 194.324 419.32L193.1 424H191.372ZM206.761 424V416.458H205.573V415.342L206.761 415.252V413.866C206.761 412.978 206.965 412.276 207.373 411.76C207.793 411.232 208.441 410.968 209.317 410.968C209.593 410.968 209.857 410.998 210.109 411.058C210.361 411.106 210.583 411.172 210.775 411.256L210.451 412.39C210.127 412.246 209.797 412.174 209.461 412.174C208.645 412.174 208.237 412.738 208.237 413.866V415.252H210.091V416.458H208.237V424H206.761ZM213.43 424.216C212.698 424.216 212.086 424 211.594 423.568C211.114 423.124 210.874 422.512 210.874 421.732C210.874 420.772 211.3 420.04 212.152 419.536C213.016 419.02 214.378 418.66 216.238 418.456C216.238 418.084 216.184 417.73 216.076 417.394C215.98 417.058 215.8 416.788 215.536 416.584C215.284 416.368 214.918 416.26 214.438 416.26C213.934 416.26 213.46 416.356 213.016 416.548C212.572 416.74 212.176 416.956 211.828 417.196L211.252 416.17C211.66 415.906 212.158 415.654 212.746 415.414C213.346 415.162 213.994 415.036 214.689 415.036C215.758 415.036 216.532 415.366 217.012 416.026C217.492 416.674 217.732 417.544 217.732 418.636V424H216.508L216.382 422.956H216.328C215.92 423.292 215.47 423.586 214.978 423.838C214.498 424.09 213.982 424.216 213.43 424.216ZM213.862 423.028C214.282 423.028 214.678 422.926 215.05 422.722C215.422 422.518 215.818 422.23 216.238 421.858V419.428C214.786 419.608 213.766 419.878 213.178 420.238C212.602 420.598 212.313 421.06 212.313 421.624C212.313 422.116 212.464 422.476 212.764 422.704C213.064 422.92 213.43 423.028 213.862 423.028ZM222.77 424.216C222.146 424.216 221.552 424.102 220.988 423.874C220.424 423.634 219.932 423.346 219.512 423.01L220.25 422.02C220.634 422.32 221.03 422.572 221.438 422.776C221.846 422.968 222.308 423.064 222.824 423.064C223.4 423.064 223.832 422.932 224.12 422.668C224.408 422.392 224.552 422.068 224.552 421.696C224.552 421.396 224.45 421.144 224.246 420.94C224.054 420.736 223.802 420.568 223.49 420.436C223.19 420.292 222.878 420.16 222.554 420.04C222.146 419.884 221.744 419.71 221.348 419.518C220.952 419.314 220.628 419.056 220.376 418.744C220.124 418.42 219.998 418.012 219.998 417.52C219.998 416.812 220.262 416.224 220.79 415.756C221.33 415.276 222.074 415.036 223.022 415.036C223.562 415.036 224.066 415.132 224.534 415.324C225.002 415.516 225.404 415.75 225.74 416.026L225.02 416.962C224.72 416.734 224.408 416.548 224.084 416.404C223.76 416.26 223.406 416.188 223.022 416.188C222.47 416.188 222.062 416.314 221.798 416.566C221.546 416.818 221.42 417.112 221.42 417.448C221.42 417.724 221.51 417.952 221.69 418.132C221.87 418.3 222.104 418.45 222.392 418.582C222.68 418.702 222.986 418.828 223.31 418.96C223.73 419.116 224.144 419.296 224.552 419.5C224.96 419.692 225.296 419.956 225.56 420.292C225.836 420.616 225.974 421.054 225.974 421.606C225.974 422.074 225.848 422.506 225.596 422.902C225.356 423.298 224.996 423.616 224.516 423.856C224.048 424.096 223.466 424.216 222.77 424.216ZM228.025 424V411.184H229.501V414.676L229.447 416.476C229.867 416.08 230.305 415.744 230.761 415.468C231.229 415.18 231.763 415.036 232.363 415.036C233.287 415.036 233.959 415.33 234.379 415.918C234.811 416.494 235.027 417.34 235.027 418.456V424H233.551V418.654C233.551 417.838 233.419 417.244 233.155 416.872C232.891 416.5 232.471 416.314 231.895 416.314C231.451 416.314 231.049 416.428 230.689 416.656C230.341 416.884 229.945 417.22 229.501 417.664V424H228.025ZM237.816 424V415.252H239.292V424H237.816ZM238.572 413.452C238.284 413.452 238.044 413.368 237.852 413.2C237.672 413.02 237.582 412.78 237.582 412.48C237.582 412.192 237.672 411.958 237.852 411.778C238.044 411.598 238.284 411.508 238.572 411.508C238.86 411.508 239.094 411.598 239.274 411.778C239.466 411.958 239.562 412.192 239.562 412.48C239.562 412.78 239.466 413.02 239.274 413.2C239.094 413.368 238.86 413.452 238.572 413.452ZM245.648 424.216C244.94 424.216 244.274 424.036 243.65 423.676C243.038 423.316 242.54 422.794 242.156 422.11C241.784 421.426 241.598 420.604 241.598 419.644C241.598 418.66 241.784 417.826 242.156 417.142C242.54 416.458 243.038 415.936 243.65 415.576C244.274 415.216 244.94 415.036 245.648 415.036C246.368 415.036 247.034 415.216 247.646 415.576C248.258 415.936 248.75 416.458 249.122 417.142C249.506 417.826 249.698 418.66 249.698 419.644C249.698 420.604 249.506 421.426 249.122 422.11C248.75 422.794 248.258 423.316 247.646 423.676C247.034 424.036 246.368 424.216 245.648 424.216ZM245.648 422.992C246.404 422.992 247.01 422.686 247.466 422.074C247.934 421.45 248.168 420.64 248.168 419.644C248.168 418.636 247.934 417.82 247.466 417.196C247.01 416.572 246.404 416.26 245.648 416.26C244.904 416.26 244.298 416.572 243.83 417.196C243.362 417.82 243.128 418.636 243.128 419.644C243.128 420.64 243.362 421.45 243.83 422.074C244.298 422.686 244.904 422.992 245.648 422.992ZM252.001 424V415.252H253.225L253.351 416.512H253.405C253.825 416.092 254.269 415.744 254.737 415.468C255.205 415.18 255.739 415.036 256.339 415.036C257.263 415.036 257.935 415.33 258.355 415.918C258.787 416.494 259.003 417.34 259.003 418.456V424H257.527V418.654C257.527 417.838 257.395 417.244 257.131 416.872C256.867 416.5 256.447 416.314 255.871 416.314C255.427 416.314 255.025 416.428 254.665 416.656C254.317 416.884 253.921 417.22 253.477 417.664V424H252.001ZM267.465 424.216C266.733 424.216 266.121 424 265.629 423.568C265.149 423.124 264.909 422.512 264.909 421.732C264.909 420.772 265.335 420.04 266.187 419.536C267.051 419.02 268.413 418.66 270.273 418.456C270.273 418.084 270.219 417.73 270.111 417.394C270.015 417.058 269.835 416.788 269.571 416.584C269.319 416.368 268.953 416.26 268.473 416.26C267.969 416.26 267.495 416.356 267.051 416.548C266.607 416.74 266.211 416.956 265.863 417.196L265.287 416.17C265.695 415.906 266.193 415.654 266.781 415.414C267.381 415.162 268.029 415.036 268.725 415.036C269.793 415.036 270.567 415.366 271.047 416.026C271.527 416.674 271.767 417.544 271.767 418.636V424H270.543L270.417 422.956H270.363C269.955 423.292 269.505 423.586 269.013 423.838C268.533 424.09 268.017 424.216 267.465 424.216ZM267.897 423.028C268.317 423.028 268.713 422.926 269.085 422.722C269.457 422.518 269.853 422.23 270.273 421.858V419.428C268.821 419.608 267.801 419.878 267.213 420.238C266.637 420.598 266.349 421.06 266.349 421.624C266.349 422.116 266.499 422.476 266.799 422.704C267.099 422.92 267.465 423.028 267.897 423.028ZM277.507 424.216C276.415 424.216 275.539 423.82 274.879 423.028C274.219 422.224 273.889 421.096 273.889 419.644C273.889 418.696 274.063 417.88 274.411 417.196C274.771 416.5 275.239 415.966 275.815 415.594C276.403 415.222 277.027 415.036 277.687 415.036C278.191 415.036 278.629 415.126 279.001 415.306C279.373 415.486 279.751 415.732 280.135 416.044L280.063 414.55V411.184H281.557V424H280.333L280.207 422.974H280.153C279.817 423.31 279.421 423.604 278.965 423.856C278.509 424.096 278.023 424.216 277.507 424.216ZM277.831 422.974C278.599 422.974 279.343 422.572 280.063 421.768V417.196C279.691 416.86 279.331 416.626 278.983 416.494C278.647 416.35 278.299 416.278 277.939 416.278C277.471 416.278 277.045 416.422 276.661 416.71C276.289 416.986 275.989 417.376 275.761 417.88C275.533 418.372 275.419 418.954 275.419 419.626C275.419 420.67 275.629 421.492 276.049 422.092C276.469 422.68 277.063 422.974 277.831 422.974ZM286.393 424L283.243 415.252H284.773L286.429 420.22C286.561 420.652 286.693 421.084 286.825 421.516C286.969 421.948 287.107 422.374 287.239 422.794H287.311C287.443 422.374 287.575 421.948 287.707 421.516C287.851 421.084 287.983 420.652 288.103 420.22L289.759 415.252H291.217L288.121 424H286.393ZM296.381 424.216C295.601 424.216 294.893 424.036 294.257 423.676C293.621 423.304 293.117 422.776 292.745 422.092C292.373 421.408 292.187 420.592 292.187 419.644C292.187 418.684 292.373 417.862 292.745 417.178C293.129 416.494 293.621 415.966 294.221 415.594C294.821 415.222 295.451 415.036 296.111 415.036C297.227 415.036 298.085 415.408 298.685 416.152C299.297 416.896 299.603 417.892 299.603 419.14C299.603 419.296 299.597 419.452 299.585 419.608C299.585 419.752 299.573 419.878 299.549 419.986H293.645C293.705 420.91 293.993 421.648 294.509 422.2C295.037 422.752 295.721 423.028 296.561 423.028C296.981 423.028 297.365 422.968 297.713 422.848C298.073 422.716 298.415 422.548 298.739 422.344L299.261 423.316C298.889 423.556 298.463 423.766 297.983 423.946C297.515 424.126 296.981 424.216 296.381 424.216ZM293.627 418.924H298.307C298.307 418.036 298.115 417.364 297.731 416.908C297.359 416.44 296.831 416.206 296.147 416.206C295.535 416.206 294.983 416.446 294.491 416.926C294.011 417.394 293.723 418.06 293.627 418.924ZM301.765 424V415.252H302.989L303.115 416.512H303.169C303.589 416.092 304.033 415.744 304.501 415.468C304.969 415.18 305.503 415.036 306.103 415.036C307.027 415.036 307.699 415.33 308.119 415.918C308.551 416.494 308.767 417.34 308.767 418.456V424H307.291V418.654C307.291 417.838 307.159 417.244 306.895 416.872C306.631 416.5 306.211 416.314 305.635 416.314C305.191 416.314 304.789 416.428 304.429 416.656C304.081 416.884 303.685 417.22 303.241 417.664V424H301.765ZM314.363 424.216C313.427 424.216 312.773 423.946 312.401 423.406C312.041 422.866 311.861 422.164 311.861 421.3V416.458H310.565V415.342L311.933 415.252L312.113 412.804H313.355V415.252H315.713V416.458H313.355V421.318C313.355 421.858 313.451 422.278 313.643 422.578C313.847 422.866 314.201 423.01 314.705 423.01C314.861 423.01 315.029 422.986 315.209 422.938C315.389 422.878 315.551 422.824 315.695 422.776L315.983 423.892C315.743 423.976 315.479 424.048 315.191 424.108C314.915 424.18 314.639 424.216 314.363 424.216ZM320.247 424.216C319.323 424.216 318.645 423.928 318.213 423.352C317.781 422.764 317.565 421.912 317.565 420.796V415.252H319.059V420.598C319.059 421.414 319.185 422.008 319.437 422.38C319.701 422.752 320.121 422.938 320.697 422.938C321.153 422.938 321.555 422.824 321.903 422.596C322.263 422.356 322.647 421.978 323.055 421.462V415.252H324.531V424H323.307L323.181 422.632H323.127C322.719 423.112 322.287 423.496 321.831 423.784C321.375 424.072 320.847 424.216 320.247 424.216ZM327.482 424V415.252H328.706L328.832 416.836H328.886C329.186 416.284 329.552 415.846 329.984 415.522C330.416 415.198 330.878 415.036 331.37 415.036C331.718 415.036 332.03 415.096 332.306 415.216L332.018 416.512C331.874 416.464 331.742 416.428 331.622 416.404C331.502 416.38 331.352 416.368 331.172 416.368C330.8 416.368 330.41 416.518 330.002 416.818C329.606 417.118 329.258 417.64 328.958 418.384V424H327.482ZM337.092 424.216C336.312 424.216 335.604 424.036 334.968 423.676C334.332 423.304 333.828 422.776 333.456 422.092C333.084 421.408 332.898 420.592 332.898 419.644C332.898 418.684 333.084 417.862 333.456 417.178C333.84 416.494 334.332 415.966 334.932 415.594C335.532 415.222 336.162 415.036 336.822 415.036C337.938 415.036 338.796 415.408 339.396 416.152C340.008 416.896 340.314 417.892 340.314 419.14C340.314 419.296 340.308 419.452 340.296 419.608C340.296 419.752 340.284 419.878 340.26 419.986H334.356C334.416 420.91 334.704 421.648 335.22 422.2C335.748 422.752 336.432 423.028 337.272 423.028C337.692 423.028 338.076 422.968 338.424 422.848C338.784 422.716 339.126 422.548 339.45 422.344L339.972 423.316C339.6 423.556 339.174 423.766 338.694 423.946C338.226 424.126 337.692 424.216 337.092 424.216ZM334.338 418.924H339.018C339.018 418.036 338.826 417.364 338.442 416.908C338.07 416.44 337.542 416.206 336.858 416.206C336.246 416.206 335.694 416.446 335.202 416.926C334.722 417.394 334.434 418.06 334.338 418.924Z" fill="white" fill-opacity="0.5"/>
<g filter="url(#filter0_d_4_39)">
<path d="M113.171 130V42.7273H147.603C154.222 42.7273 159.862 43.9915 164.521 46.5199C169.18 49.0199 172.731 52.5 175.174 56.9602C177.646 61.392 178.881 66.5057 178.881 72.3011C178.881 78.0966 177.631 83.2102 175.131 87.642C172.631 92.0739 169.009 95.5256 164.265 97.9972C159.549 100.469 153.839 101.705 147.134 101.705H125.188V86.9176H144.151C147.702 86.9176 150.629 86.3068 152.93 85.0852C155.259 83.8352 156.992 82.1165 158.129 79.929C159.293 77.7131 159.876 75.1705 159.876 72.3011C159.876 69.4034 159.293 66.875 158.129 64.7159C156.992 62.5284 155.259 60.8381 152.93 59.6449C150.6 58.4233 147.646 57.8125 144.066 57.8125H131.623V130H113.171ZM190.866 130V42.7273H249.673V57.9403H209.318V78.7358H246.648V93.9489H209.318V114.787H249.844V130H190.866ZM337.34 42.7273V130H321.403L283.434 75.071H282.795V130H264.343V42.7273H280.536L318.207 97.6136H318.974V42.7273H337.34ZM27.8587 275V187.727H62.2905C68.8814 187.727 74.5064 188.906 79.1655 191.264C83.853 193.594 87.4183 196.903 89.8615 201.193C92.3331 205.455 93.5689 210.469 93.5689 216.236C93.5689 222.031 92.3189 227.017 89.8189 231.193C87.3189 235.341 83.6967 238.523 78.9524 240.739C74.2365 242.955 68.5263 244.062 61.8217 244.062H38.7678V229.233H58.8388C62.3615 229.233 65.2876 228.75 67.6172 227.784C69.9467 226.818 71.6797 225.369 72.8161 223.438C73.9808 221.506 74.5632 219.105 74.5632 216.236C74.5632 213.338 73.9808 210.895 72.8161 208.906C71.6797 206.918 69.9325 205.412 67.5746 204.389C65.245 203.338 62.3047 202.812 58.7536 202.812H46.3104V275H27.8587ZM74.9893 235.284L96.6797 275H76.3104L55.0888 235.284H74.9893ZM186.808 231.364C186.808 240.881 185.004 248.977 181.396 255.653C177.816 262.33 172.93 267.429 166.737 270.952C160.572 274.446 153.64 276.193 145.941 276.193C138.185 276.193 131.225 274.432 125.06 270.909C118.896 267.386 114.023 262.287 110.444 255.611C106.864 248.935 105.075 240.852 105.075 231.364C105.075 221.847 106.864 213.75 110.444 207.074C114.023 200.398 118.896 195.312 125.06 191.818C131.225 188.295 138.185 186.534 145.941 186.534C153.64 186.534 160.572 188.295 166.737 191.818C172.93 195.312 177.816 200.398 181.396 207.074C185.004 213.75 186.808 221.847 186.808 231.364ZM168.1 231.364C168.1 225.199 167.177 220 165.33 215.767C163.512 211.534 160.941 208.324 157.617 206.136C154.293 203.949 150.401 202.855 145.941 202.855C141.481 202.855 137.589 203.949 134.265 206.136C130.941 208.324 128.356 211.534 126.509 215.767C124.691 220 123.782 225.199 123.782 231.364C123.782 237.528 124.691 242.727 126.509 246.96C128.356 251.193 130.941 254.403 134.265 256.591C137.589 258.778 141.481 259.872 145.941 259.872C150.401 259.872 154.293 258.778 157.617 256.591C160.941 254.403 163.512 251.193 165.33 246.96C167.177 242.727 168.1 237.528 168.1 231.364ZM247.82 212.827C247.479 209.389 246.016 206.719 243.43 204.815C240.845 202.912 237.337 201.96 232.905 201.96C229.893 201.96 227.351 202.386 225.277 203.239C223.203 204.062 221.612 205.213 220.504 206.69C219.425 208.168 218.885 209.844 218.885 211.719C218.828 213.281 219.155 214.645 219.865 215.81C220.604 216.974 221.612 217.983 222.891 218.835C224.169 219.659 225.646 220.384 227.322 221.009C228.999 221.605 230.788 222.116 232.692 222.543L240.533 224.418C244.339 225.27 247.834 226.406 251.016 227.827C254.197 229.247 256.953 230.994 259.283 233.068C261.612 235.142 263.416 237.585 264.695 240.398C266.001 243.21 266.669 246.435 266.697 250.071C266.669 255.412 265.305 260.043 262.607 263.963C259.936 267.855 256.072 270.881 251.016 273.04C245.987 275.17 239.922 276.236 232.82 276.236C225.774 276.236 219.638 275.156 214.411 272.997C209.212 270.838 205.149 267.642 202.223 263.409C199.325 259.148 197.805 253.878 197.663 247.599H215.518C215.717 250.526 216.555 252.969 218.033 254.929C219.538 256.861 221.541 258.324 224.041 259.318C226.57 260.284 229.425 260.767 232.607 260.767C235.732 260.767 238.445 260.312 240.746 259.403C243.075 258.494 244.879 257.23 246.158 255.611C247.436 253.991 248.075 252.131 248.075 250.028C248.075 248.068 247.493 246.42 246.328 245.085C245.192 243.75 243.516 242.614 241.3 241.676C239.112 240.739 236.428 239.886 233.246 239.119L223.743 236.733C216.385 234.943 210.575 232.145 206.314 228.338C202.053 224.531 199.936 219.403 199.964 212.955C199.936 207.67 201.342 203.054 204.183 199.105C207.053 195.156 210.987 192.074 215.987 189.858C220.987 187.642 226.669 186.534 233.033 186.534C239.51 186.534 245.163 187.642 249.993 189.858C254.851 192.074 258.629 195.156 261.328 199.105C264.027 203.054 265.419 207.628 265.504 212.827H247.82ZM279.109 275V187.727H337.915V202.94H297.56V223.736H334.89V238.949H297.56V259.787H338.086V275H279.109Z" fill="#D923CB"/>
</g>
<g filter="url(#filter1_d_4_39)">
<path d="M75.6705 325.625H60.7386C60.4659 323.693 59.9091 321.977 59.0682 320.477C58.2273 318.954 57.1477 317.659 55.8295 316.591C54.5114 315.523 52.9886 314.704 51.2614 314.136C49.5568 313.568 47.7045 313.284 45.7045 313.284C42.0909 313.284 38.9432 314.182 36.2614 315.977C33.5795 317.75 31.5 320.341 30.0227 323.75C28.5455 327.136 27.8068 331.25 27.8068 336.091C27.8068 341.068 28.5455 345.25 30.0227 348.636C31.5227 352.023 33.6136 354.579 36.2955 356.307C38.9773 358.034 42.0795 358.898 45.6023 358.898C47.5795 358.898 49.4091 358.636 51.0909 358.114C52.7955 357.591 54.3068 356.829 55.625 355.829C56.9432 354.807 58.0341 353.568 58.8977 352.114C59.7841 350.659 60.3977 349 60.7386 347.136L75.6705 347.204C75.2841 350.409 74.3182 353.5 72.7727 356.477C71.25 359.432 69.1932 362.079 66.6023 364.42C64.0341 366.739 60.9659 368.579 57.3977 369.943C53.8523 371.284 49.8409 371.954 45.3636 371.954C39.1364 371.954 33.5682 370.545 28.6591 367.727C23.7727 364.909 19.9091 360.829 17.0682 355.489C14.25 350.148 12.8409 343.682 12.8409 336.091C12.8409 328.477 14.2727 322 17.1364 316.659C20 311.318 23.8864 307.25 28.7955 304.454C33.7045 301.636 39.2273 300.227 45.3636 300.227C49.4091 300.227 53.1591 300.795 56.6136 301.932C60.0909 303.068 63.1705 304.727 65.8523 306.909C68.5341 309.068 70.7159 311.716 72.3977 314.852C74.1023 317.989 75.1932 321.579 75.6705 325.625ZM109.642 372.023C104.347 372.023 99.767 370.898 95.9034 368.648C92.0625 366.375 89.0966 363.216 87.0057 359.17C84.9148 355.102 83.8693 350.386 83.8693 345.023C83.8693 339.614 84.9148 334.886 87.0057 330.841C89.0966 326.773 92.0625 323.614 95.9034 321.364C99.767 319.091 104.347 317.954 109.642 317.954C114.938 317.954 119.506 319.091 123.347 321.364C127.21 323.614 130.188 326.773 132.278 330.841C134.369 334.886 135.415 339.614 135.415 345.023C135.415 350.386 134.369 355.102 132.278 359.17C130.188 363.216 127.21 366.375 123.347 368.648C119.506 370.898 114.938 372.023 109.642 372.023ZM109.71 360.773C112.119 360.773 114.131 360.091 115.744 358.727C117.358 357.341 118.574 355.454 119.392 353.068C120.233 350.682 120.653 347.966 120.653 344.92C120.653 341.875 120.233 339.159 119.392 336.773C118.574 334.386 117.358 332.5 115.744 331.114C114.131 329.727 112.119 329.034 109.71 329.034C107.278 329.034 105.233 329.727 103.574 331.114C101.938 332.5 100.699 334.386 99.858 336.773C99.0398 339.159 98.6307 341.875 98.6307 344.92C98.6307 347.966 99.0398 350.682 99.858 353.068C100.699 355.454 101.938 357.341 103.574 358.727C105.233 360.091 107.278 360.773 109.71 360.773ZM168.517 372.023C163.153 372.023 158.54 370.886 154.676 368.614C150.835 366.318 147.881 363.136 145.812 359.068C143.767 355 142.744 350.318 142.744 345.023C142.744 339.659 143.778 334.954 145.847 330.909C147.938 326.841 150.903 323.67 154.744 321.398C158.585 319.102 163.153 317.954 168.449 317.954C173.017 317.954 177.017 318.784 180.449 320.443C183.881 322.102 186.597 324.432 188.597 327.432C190.597 330.432 191.699 333.954 191.903 338H178.199C177.813 335.386 176.79 333.284 175.131 331.693C173.494 330.079 171.347 329.273 168.688 329.273C166.438 329.273 164.472 329.886 162.79 331.114C161.131 332.318 159.835 334.079 158.903 336.398C157.972 338.716 157.506 341.523 157.506 344.818C157.506 348.159 157.96 351 158.869 353.341C159.801 355.682 161.108 357.466 162.79 358.693C164.472 359.92 166.438 360.534 168.688 360.534C170.347 360.534 171.835 360.193 173.153 359.511C174.494 358.829 175.597 357.841 176.46 356.545C177.347 355.227 177.926 353.648 178.199 351.807H191.903C191.676 355.807 190.585 359.329 188.631 362.375C186.699 365.398 184.028 367.761 180.619 369.466C177.21 371.17 173.176 372.023 168.517 372.023ZM229.054 318.636V329.545H197.52V318.636H229.054ZM204.679 306.091H219.202V354.909C219.202 356.25 219.406 357.295 219.815 358.045C220.224 358.773 220.793 359.284 221.52 359.579C222.27 359.875 223.134 360.023 224.111 360.023C224.793 360.023 225.474 359.966 226.156 359.852C226.838 359.716 227.361 359.614 227.724 359.545L230.009 370.352C229.281 370.579 228.259 370.841 226.94 371.136C225.622 371.454 224.02 371.648 222.134 371.716C218.634 371.852 215.565 371.386 212.929 370.318C210.315 369.25 208.281 367.591 206.827 365.341C205.372 363.091 204.656 360.25 204.679 356.818V306.091ZM253.446 371.989C250.105 371.989 247.128 371.409 244.514 370.25C241.901 369.068 239.832 367.329 238.31 365.034C236.81 362.716 236.06 359.829 236.06 356.375C236.06 353.466 236.594 351.023 237.662 349.045C238.73 347.068 240.185 345.477 242.026 344.273C243.866 343.068 245.957 342.159 248.298 341.545C250.662 340.932 253.139 340.5 255.73 340.25C258.776 339.932 261.23 339.636 263.094 339.364C264.957 339.068 266.31 338.636 267.151 338.068C267.991 337.5 268.412 336.659 268.412 335.545V335.341C268.412 333.182 267.73 331.511 266.366 330.329C265.026 329.148 263.116 328.557 260.639 328.557C258.026 328.557 255.946 329.136 254.401 330.295C252.855 331.432 251.832 332.864 251.332 334.591L237.901 333.5C238.582 330.318 239.923 327.568 241.923 325.25C243.923 322.909 246.503 321.114 249.662 319.864C252.844 318.591 256.526 317.954 260.707 317.954C263.616 317.954 266.401 318.295 269.06 318.977C271.741 319.659 274.116 320.716 276.185 322.148C278.276 323.579 279.923 325.42 281.128 327.67C282.332 329.898 282.935 332.568 282.935 335.682V371H269.162V363.739H268.753C267.912 365.375 266.787 366.818 265.378 368.068C263.969 369.295 262.276 370.261 260.298 370.966C258.321 371.648 256.037 371.989 253.446 371.989ZM257.605 361.966C259.741 361.966 261.628 361.545 263.264 360.704C264.901 359.841 266.185 358.682 267.116 357.227C268.048 355.773 268.514 354.125 268.514 352.284V346.727C268.06 347.023 267.435 347.295 266.639 347.545C265.866 347.773 264.991 347.989 264.014 348.193C263.037 348.375 262.06 348.545 261.082 348.704C260.105 348.841 259.219 348.966 258.423 349.079C256.719 349.329 255.23 349.727 253.957 350.273C252.685 350.818 251.696 351.557 250.991 352.489C250.287 353.398 249.935 354.534 249.935 355.898C249.935 357.875 250.651 359.386 252.082 360.432C253.537 361.454 255.378 361.966 257.605 361.966ZM294.202 371V318.636H308.724V371H294.202ZM301.497 311.886C299.338 311.886 297.486 311.17 295.94 309.739C294.418 308.284 293.656 306.545 293.656 304.523C293.656 302.523 294.418 300.807 295.94 299.375C297.486 297.92 299.338 297.193 301.497 297.193C303.656 297.193 305.497 297.92 307.02 299.375C308.565 300.807 309.338 302.523 309.338 304.523C309.338 306.545 308.565 308.284 307.02 309.739C305.497 311.17 303.656 311.886 301.497 311.886ZM334.881 301.182V371H320.358V301.182H334.881Z" fill="#45E7F4"/>
</g>
<defs>
<filter id="filter0_d_4_39" x="9.85864" y="24.7273" width="346.227" height="269.509" filterUnits="userSpaceOnUse" color-interpolation-filters="sRGB">
<feFlood flood-opacity="0" result="BackgroundImageFix"/>
<feColorMatrix in="SourceAlpha" type="matrix" values="0 0 0 0 0 0 0 0 0 0 0 0 0 0 0 0 0 0 127 0" result="hardAlpha"/>
<feOffset/>
<feGaussianBlur stdDeviation="9"/>
<feColorMatrix type="matrix" values="0 0 0 0 1 0 0 0 0 0 0 0 0 0 0.921569 0 0 0 0.788 0"/>
<feBlend mode="normal" in2="BackgroundImageFix" result="effect1_dropShadow_4_39"/>
<feBlend mode="normal" in="SourceGraphic" in2="effect1_dropShadow_4_39" result="shape"/>
</filter>
<filter id="filter1_d_4_39" x="0.840942" y="285.193" width="346.04" height="98.8296" filterUnits="userSpaceOnUse" color-interpolation-filters="sRGB">
<feFlood flood-opacity="0" result="BackgroundImageFix"/>
<feColorMatrix in="SourceAlpha" type="matrix" values="0 0 0 0 0 0 0 0 0 0 0 0 0 0 0 0 0 0 127 0" result="hardAlpha"/>
<feOffset/>
<feGaussianBlur stdDeviation="6"/>
<feColorMatrix type="matrix" values="0 0 0 0 0.0509804 0 0 0 0 0.670588 0 0 0 0 1 0 0 0 0.8 0"/>
<feBlend mode="normal" in2="BackgroundImageFix" result="effect1_dropShadow_4_39"/>
<feBlend mode="normal" in="SourceGraphic" in2="effect1_dropShadow_4_39" result="shape"/>
</filter>
</defs>
</svg>
