<svg id="Layer_1" data-name="Layer 1" xmlns="http://www.w3.org/2000/svg" xmlns:xlink="http://www.w3.org/1999/xlink" viewBox="0 0 681.05 590.92"><defs><style>.cls-1{fill:url(#radial-gradient);}.cls-2{opacity:0.6;}.cls-3{fill:url(#linear-gradient);}.cls-4{fill:url(#radial-gradient-3);}.cls-5{fill:url(#linear-gradient-2);}.cls-6{fill:url(#linear-gradient-3);}</style><radialGradient id="radial-gradient" cx="-134.38" cy="819.28" r="0.5" gradientTransform="matrix(680, 0, 0, -588.91, 91747.26, 482808.49)" gradientUnits="userSpaceOnUse"><stop offset="0" stop-color="#408aef"/><stop offset="0.19" stop-color="#b25ac2"/><stop offset="0.48" stop-color="#18419d"/><stop offset="0.74" stop-color="#b91bd3"/><stop offset="1" stop-color="#408aef"/></radialGradient><linearGradient id="linear-gradient" x1="-134.7" y1="819.51" x2="-133.99" y2="819.15" gradientTransform="matrix(572.27, 0, 0, -588.9, 77252.96, 482742.07)" gradientUnits="userSpaceOnUse"><stop offset="0" stop-color="#803ddd"/><stop offset="1" stop-color="#4e81d3"/></linearGradient><radialGradient id="radial-gradient-3" cx="-134.12" cy="819.49" r="0.25" gradientTransform="matrix(680, 0, 0, -588.91, 91689.05, 482750.28)" gradientUnits="userSpaceOnUse"><stop offset="0"/><stop offset="1" stop-opacity="0"/></radialGradient><linearGradient id="linear-gradient-2" x1="-134.79" y1="819.49" x2="-133.77" y2="819.07" gradientTransform="matrix(533.82, 0, 0, -526.22, 71954.61, 431403.87)" gradientUnits="userSpaceOnUse"><stop offset="0" stop-color="#3899fa"/><stop offset="1" stop-color="#6e0d9a"/></linearGradient><linearGradient id="linear-gradient-3" x1="-134.28" y1="819.59" x2="-134.28" y2="818.59" gradientTransform="matrix(643.79, 0, 0, -463.5, 86801.12, 379914.05)" gradientUnits="userSpaceOnUse"><stop offset="0" stop-color="#bf4cfc"/><stop offset="1" stop-color="#386dd1"/></linearGradient></defs><g id="Triangle_Glow" data-name="Triangle Glow"><path id="Glow_More" data-name="Glow More" class="cls-1" d="M213,156.46l317,0L372,431.85ZM675.8,31l-607.61,0L32,93.74,335.8,620h72.4L712,93.74Z" transform="translate(-32 -31.04)"/><g id="Triangle" class="cls-2"><path id="Glow" class="cls-1" d="M213,156.46l317,0L372,431.85ZM675.8,31l-607.61,0L32,93.74,335.8,620h72.4L712,93.74Z" transform="translate(-32 -31.04)"/><path id="Right" class="cls-3" d="M676.86,33.05l-267.6,463.5L214.06,158.47,140.78,158,409.27,622,713.05,95.75Z" transform="translate(-32 -31.04)"/><path id="Shadow" class="cls-4" d="M214.05,158.47l317,0L373,433.86ZM676.85,33.05l-607.6,0L33.05,95.75,336.85,622h72.4L713.05,95.75Z" transform="translate(-32 -31.04)"/><path id="Left" class="cls-5" d="M336.86,622h72.41L140.78,158l390.23.43,35.86-62.51L33.05,95.75Z" transform="translate(-32 -31.04)"/><path id="Top" class="cls-6" d="M676.86,33.05l-607.59,0L33.07,95.75l533.79.18L373.05,433.85l36.21,62.7Z" transform="translate(-32 -31.04)"/></g></g></svg>